<?xml version="1.0" encoding="utf-8"?>
<!-- Generator: Adobe Illustrator 19.2.0, SVG Export Plug-In . SVG Version: 6.00 Build 0)  -->
<svg version="1.1" id="Capa_1" xmlns="http://www.w3.org/2000/svg" xmlns:xlink="http://www.w3.org/1999/xlink" x="0px" y="0px"
	 viewBox="0 0 243.3 73.7" style="enable-background:new 0 0 243.3 73.7;" xml:space="preserve">
<style type="text/css">
	.st0{display:none;fill:#1D1C1C;}
	.st1{display:none;}
	.st2{clip-path:url(#SVGID_2_);}
	.st3{clip-path:url(#SVGID_12_);}
	.st4{clip-path:url(#SVGID_13_);}
	.st5{clip-path:url(#SVGID_14_);}
	.st6{clip-path:url(#SVGID_15_);}
	.st7{clip-path:url(#SVGID_16_);}
	.st8{clip-path:url(#SVGID_17_);}
	.st9{clip-path:url(#SVGID_18_);}
	.st10{clip-path:url(#SVGID_19_);}
	.st11{clip-path:url(#SVGID_20_);fill:#E78B22;}
	.st12{clip-path:url(#SVGID_20_);fill:#FFFFFF;}
	.st13{fill:#FFFFFF;}
	.st14{display:inline;fill:#FFFFFF;}
</style>
<rect x="-193" y="-51" class="st0" width="543.8" height="273.8"/>
<rect x="-45.5" y="-28.5" class="st1" width="327.5" height="157.5"/>
<g>
	<g>
		<g>
			<defs>
				<rect id="SVGID_1_" x="2" y="1.4" width="63.7" height="70.8"/>
			</defs>
			<clipPath id="SVGID_2_">
				<use xlink:href="#SVGID_1_"  style="overflow:visible;"/>
			</clipPath>
			<g class="st2">
				<g>
					<defs>
						<rect id="SVGID_3_" x="2" y="1.4" width="63.7" height="70.8"/>
					</defs>
					<defs>
						<rect id="SVGID_4_" x="2" y="1.4" width="63.7" height="70.8"/>
					</defs>
					<defs>
						<rect id="SVGID_5_" x="2" y="1.4" width="63.7" height="70.8"/>
					</defs>
					<defs>
						<rect id="SVGID_6_" x="2" y="1.4" width="63.7" height="70.8"/>
					</defs>
					<defs>
						<rect id="SVGID_7_" x="2" y="1.4" width="63.7" height="70.8"/>
					</defs>
					<defs>
						<rect id="SVGID_8_" x="2" y="1.4" width="63.7" height="70.8"/>
					</defs>
					<defs>
						<rect id="SVGID_9_" x="2" y="1.4" width="63.7" height="70.8"/>
					</defs>
					<defs>
						<rect id="SVGID_10_" x="2" y="1.4" width="63.7" height="70.8"/>
					</defs>
					<defs>
						<rect id="SVGID_11_" x="2" y="1.4" width="63.7" height="70.8"/>
					</defs>
					<clipPath id="SVGID_12_">
						<use xlink:href="#SVGID_3_"  style="overflow:visible;"/>
					</clipPath>
					<clipPath id="SVGID_13_" class="st3">
						<use xlink:href="#SVGID_4_"  style="overflow:visible;"/>
					</clipPath>
					<clipPath id="SVGID_14_" class="st4">
						<use xlink:href="#SVGID_5_"  style="overflow:visible;"/>
					</clipPath>
					<clipPath id="SVGID_15_" class="st5">
						<use xlink:href="#SVGID_6_"  style="overflow:visible;"/>
					</clipPath>
					<clipPath id="SVGID_16_" class="st6">
						<use xlink:href="#SVGID_7_"  style="overflow:visible;"/>
					</clipPath>
					<clipPath id="SVGID_17_" class="st7">
						<use xlink:href="#SVGID_8_"  style="overflow:visible;"/>
					</clipPath>
					<clipPath id="SVGID_18_" class="st8">
						<use xlink:href="#SVGID_9_"  style="overflow:visible;"/>
					</clipPath>
					<clipPath id="SVGID_19_" class="st9">
						<use xlink:href="#SVGID_10_"  style="overflow:visible;"/>
					</clipPath>
					<clipPath id="SVGID_20_" class="st10">
						<use xlink:href="#SVGID_11_"  style="overflow:visible;"/>
					</clipPath>
					<path class="st11" d="M2,23.1c0-2.5,1.8-5.7,4-6.9L29.9,2.4c2.2-1.2,5.8-1.2,8,0l23.8,13.7c2.2,1.2,4,4.4,4,6.9v27.6
						c0,2.5-1.8,5.7-4,6.9L37.9,71.3c-2.2,1.2-5.8,1.2-8,0L6,57.6c-2.2-1.2-4-4.4-4-6.9V23.1z"/>
					<path class="st12" d="M26.2,39.3c2-0.9,2.9-4.4,10.6-6.2c0-1.2-4-14.5-12.3-18.6c-8.7-3.8-10,10.6-6.3,16.7
						C18.4,32.3,24.2,40.1,26.2,39.3"/>
					<path class="st12" d="M38.5,30.9c0.5-1.6,0.7-2.6,0.8-2.9c-3.5-17.8-11.1-12.2-11.1-12.2s3.3,3.2,5.2,6.7
						c1.9,3.5,2.8,6.7,3,6.9C36.8,29.6,38.3,31,38.5,30.9"/>
					<path class="st12" d="M45.4,25.8c0,0-1-2.3-0.6-2.5c0.4-0.2,5-0.4,5-0.4s0.7-0.4,0.6-1.1c-0.1-0.7-1-0.9-1-0.9
						s-5.6,0.3-5.8,0.4c-1.2,0.1-0.7,1.6-0.7,1.6l0.7,2.9L45.4,25.8z"/>
					<path class="st12" d="M48.1,27.2l0.2-0.3l3.9,1.1c0,0,0.7,0.1,0.8-0.7c0.2-0.7-0.3-1.1-0.3-1.1s-3.7-1-4-1.1
						c-1.1-0.3-3.7,1.1-3.7,1.1L48.1,27.2z"/>
					<path class="st12" d="M49.2,27.5c-3.4-2-6.6-3.1-8.4-0.3c-1.6,2.8-1.1,8.3,2.3,10.3c3.4,2,9.1,2.6,10.9-0.2
						C55.6,34.6,52.6,29.5,49.2,27.5 M51.1,34.7c-1.1,0.9-3.2,0.2-4.7-1.7c-1.5-1.8-1.8-4-0.8-4.9c1.1-0.9,3.2-0.2,4.7,1.7
						C51.9,31.5,52.2,33.7,51.1,34.7"/>
					<path class="st12" d="M22.5,51.7c0,0-1.6,4.4,1,10.9c8.9,1.1,12.1-2.5,12.1-2.5s-5.3-2-7.6-3.7C25.6,55,22.5,51.7,22.5,51.7"/>
					<path class="st12" d="M22.9,48.1c0,0.5,4.3,6.5,15.5,10.2c2.9-1.3,3.5-8,3.5-8s-5.6-2.8-8.3-4.1c-2.6-1.3-6.4-5.8-6.4-5.8
						S23,43.1,22.9,48.1"/>
					<path class="st12" d="M41.2,47c0.2-0.1-0.1-6.2,0.2-6.8c0.3-0.6,1.2-1.1,1.2-1.1s-1.4-1.2-2.5-2.2c-1.1-1.1-0.5-2.1-2-2
						c-6.1,0.9-8.2,4.2-8.2,4.2S34.2,44.7,41.2,47"/>
				</g>
			</g>
		</g>
		<g>
			<path class="st13" d="M86.8,14.4c0.8-0.2,1.6-0.4,2.3-0.5c0.8-0.1,1.6-0.2,2.4-0.2c1.5,0,3,0.2,4.4,0.7c1.4,0.4,2.7,1.1,3.8,2
				c1.1,0.9,2,2.1,2.6,3.6c0.7,1.4,1,3.2,1,5.2c0,1.7-0.3,3.2-0.8,4.6s-1.3,2.6-2.4,3.6c-1,1-2.3,1.8-3.8,2.4
				c-1.5,0.6-3.1,0.9-4.9,0.9c-2.5,0-5.1-0.4-7.7-1.2V5h3.1V14.4z M99.9,25.2c0-2.8-0.8-5-2.4-6.5s-3.7-2.3-6.4-2.3
				c-0.7,0-1.5,0.1-2.2,0.2c-0.8,0.2-1.5,0.4-2.2,0.6v15.9c0.8,0.3,1.6,0.5,2.4,0.6s1.6,0.2,2.5,0.2c2.6,0,4.7-0.8,6.1-2.4
				C99.2,29.9,99.9,27.8,99.9,25.2z"/>
			<path class="st13" d="M124.5,33.2c-1.1,1.1-2.3,2-3.6,2.6c-1.4,0.6-3,0.9-5,0.9c-1.8,0-3.4-0.3-4.7-0.9c-1.4-0.6-2.5-1.4-3.4-2.5
				c-0.9-1-1.6-2.2-2-3.6s-0.7-2.8-0.7-4.3c0-2,0.3-3.7,0.8-5.2s1.3-2.7,2.2-3.6c0.9-1,2-1.7,3.2-2.1c1.2-0.5,2.5-0.7,3.9-0.7
				c3.3,0,5.8,1,7.5,3s2.5,5,2.4,8.8h-16.9c0.1,2.6,0.8,4.6,2.2,6.1c1.4,1.5,3.3,2.2,5.6,2.2c1.3,0,2.5-0.2,3.6-0.7
				c1.1-0.4,2.1-1.1,2.9-2.1L124.5,33.2z M121.9,23c0-0.9-0.1-1.8-0.4-2.6c-0.3-0.8-0.7-1.5-1.2-2.1s-1.2-1-2-1.4
				c-0.8-0.3-1.8-0.5-2.9-0.5s-2.1,0.2-2.9,0.5s-1.5,0.8-2,1.3s-0.9,1.2-1.3,2s-0.7,1.7-0.8,2.7h13.5V23z"/>
			<path class="st13" d="M128,36.5V5h12.5c1.2,0,2.3,0.2,3.4,0.7c1.1,0.5,2,1.1,2.8,1.9s1.4,1.8,1.9,2.8c0.5,1.1,0.7,2.2,0.7,3.4
				c0,1.1-0.2,2.1-0.6,3.1c-0.4,1-0.9,1.9-1.6,2.7c1.2,0.8,2.2,1.9,2.9,3.2c0.7,1.3,1,2.8,1,4.3c0,1.3-0.2,2.5-0.7,3.6s-1.2,2.1-2,3
				c-0.9,0.8-1.9,1.5-3,2s-2.4,0.7-3.6,0.7L128,36.5L128,36.5z M132.8,9.9v7.9h7.7c1.1,0,2-0.4,2.8-1.1c0.8-0.8,1.1-1.7,1.1-2.8
				s-0.4-2.1-1.1-2.8c-0.8-0.7-1.7-1.1-2.8-1.1L132.8,9.9L132.8,9.9z M132.8,31.6h8.8c0.6,0,1.2-0.1,1.8-0.4s1-0.6,1.5-1.1
				c0.4-0.4,0.7-0.9,1-1.5c0.2-0.6,0.4-1.2,0.4-1.8c0-1.3-0.5-2.3-1.4-3c-0.9-0.8-2-1.1-3.2-1.1h-8.8v8.9H132.8z"/>
			<path class="st13" d="M172.3,33.2c-1,1.1-2.2,2-3.6,2.6s-3,0.9-5,0.9c-1.8,0-3.4-0.3-4.8-0.9c-1.3-0.6-2.5-1.4-3.4-2.5
				c-0.9-1-1.6-2.2-2-3.6c-0.5-1.4-0.7-2.8-0.7-4.3c0-2,0.3-3.7,0.8-5.2s1.3-2.7,2.2-3.6c0.9-1,2-1.7,3.3-2.1c1.2-0.5,2.5-0.7,4-0.7
				c3.3,0,5.8,1.1,7.5,3.2c1.7,2.2,2.5,5.3,2.5,9.4h-15.6c0.2,1.9,0.9,3.4,2,4.4c1.1,1.1,2.5,1.6,4.3,1.6c1.1,0,2.1-0.2,3.1-0.7
				s2-1.2,2.9-2.2l2.9,3.1L172.3,33.2z M163.1,17.8c-1.7,0-2.9,0.4-3.7,1.3c-0.8,0.8-1.4,1.9-1.7,3.3h10.7c-0.2-1.3-0.7-2.4-1.6-3.2
				C166,18.2,164.7,17.8,163.1,17.8z"/>
			<path class="st13" d="M194.3,33.2c-1,1.1-2.2,2-3.6,2.6s-3,0.9-5,0.9c-1.8,0-3.4-0.3-4.8-0.9c-1.3-0.6-2.5-1.4-3.4-2.5
				c-0.9-1-1.6-2.2-2-3.6c-0.5-1.4-0.7-2.8-0.7-4.3c0-2,0.3-3.7,0.8-5.2s1.3-2.7,2.2-3.6c0.9-1,2-1.7,3.3-2.1c1.2-0.5,2.5-0.7,4-0.7
				c3.3,0,5.8,1.1,7.5,3.2c1.7,2.2,2.5,5.3,2.5,9.4h-15.6c0.2,1.9,0.9,3.4,2,4.4c1.1,1.1,2.5,1.6,4.3,1.6c1.1,0,2.1-0.2,3.1-0.7
				s2-1.2,2.9-2.2l2.9,3.1L194.3,33.2z M185.1,17.8c-1.7,0-2.9,0.4-3.7,1.3c-0.8,0.8-1.4,1.9-1.7,3.3h10.7c-0.2-1.3-0.7-2.4-1.6-3.2
				C188,18.2,186.7,17.8,185.1,17.8z"/>
		</g>
	</g>
</g>
<g id="pencil" class="st1">
	<path class="st14" d="M207.9,29.5l5.3,5.3l-7.9,2.6L207.9,29.5z M210,27.5l14.6-14.6l5.1,5.1l-14.6,14.6L210,27.5z M226.6,10.9
		l2.2-2.3c0.2-0.2,0.5-0.3,0.8-0.3c0.3,0,0.6,0.1,0.8,0.3l3.6,3.6c0.4,0.4,0.4,1.1,0,1.5l-2.3,2.2L226.6,10.9z"/>
</g>
<g>
	<path class="st13" d="M87.4,71.3h-3.1V49.7c1-0.3,1.9-0.5,2.8-0.7c0.9-0.2,1.8-0.2,2.6-0.2c1.2,0,2.4,0.2,3.4,0.6
		c1,0.4,1.9,0.9,2.6,1.6c0.7,0.7,1.3,1.5,1.7,2.5c0.4,1,0.6,2,0.6,3.1c0,1.4-0.2,2.5-0.7,3.5c-0.5,1-1.1,1.8-1.8,2.4
		c-0.8,0.6-1.6,1.1-2.6,1.4c-1,0.3-2,0.4-3,0.4c-0.8,0-1.6-0.1-2.4-0.3V71.3z M94.6,56.6c0-1.5-0.4-2.7-1.2-3.6
		c-0.8-0.9-2-1.4-3.4-1.4c-0.9,0-1.7,0.1-2.5,0.3v9.2c0.4,0.1,0.7,0.2,1.1,0.3c0.4,0.1,0.8,0.1,1.1,0.1c1.5,0,2.7-0.4,3.6-1.3
		C94.1,59.4,94.6,58.2,94.6,56.6z"/>
	<path class="st13" d="M108.1,52.1c-0.4-0.2-0.8-0.3-1.2-0.4c-0.4-0.1-0.7-0.1-1-0.1c-0.4,0-0.9,0.1-1.3,0.3
		c-0.4,0.2-0.8,0.4-1.2,0.7c-0.3,0.3-0.6,0.6-0.8,0.9c-0.2,0.3-0.3,0.6-0.3,0.9v9.8h-3.1V49h3.1V50c0.5-0.4,1.1-0.7,1.8-1
		c0.7-0.2,1.5-0.4,2.3-0.4c0.3,0,0.7,0,1.2,0.1c0.5,0.1,0.9,0.2,1.4,0.3L108.1,52.1z"/>
	<path class="st13" d="M124.5,56.7c0,1.1-0.1,2.1-0.4,3c-0.3,0.9-0.7,1.8-1.3,2.5c-0.6,0.7-1.4,1.3-2.3,1.6c-0.9,0.4-2,0.6-3.2,0.6
		c-1.2,0-2.2-0.2-3.1-0.6c-0.9-0.4-1.6-1-2.2-1.7c-0.6-0.7-1-1.5-1.3-2.5c-0.3-1-0.4-2-0.4-3.1c0-1.1,0.1-2.1,0.4-3.1
		c0.3-0.9,0.7-1.8,1.3-2.5c0.6-0.7,1.3-1.3,2.2-1.6c0.9-0.4,1.9-0.6,3.1-0.6c1.2,0,2.3,0.2,3.2,0.6c0.9,0.4,1.7,1,2.3,1.7
		s1,1.5,1.3,2.5C124.4,54.6,124.5,55.6,124.5,56.7z M121.3,56.7c0-0.7-0.1-1.4-0.2-2c-0.1-0.6-0.4-1.2-0.7-1.6
		c-0.3-0.5-0.7-0.8-1.2-1.1c-0.5-0.3-1.1-0.4-1.8-0.4c-0.7,0-1.3,0.1-1.8,0.4c-0.5,0.3-0.9,0.6-1.2,1.1c-0.3,0.5-0.5,1-0.7,1.6
		c-0.1,0.6-0.2,1.3-0.2,2c0,0.7,0.1,1.4,0.2,2c0.1,0.6,0.4,1.2,0.7,1.6c0.3,0.5,0.7,0.8,1.2,1.1c0.5,0.3,1.1,0.4,1.8,0.4
		c0.7,0,1.3-0.1,1.8-0.4c0.5-0.3,0.9-0.6,1.2-1.1c0.3-0.5,0.5-1,0.7-1.6C121.2,58.1,121.3,57.4,121.3,56.7z"/>
	<path class="st13" d="M136.1,42.9h3.1v20.6c-2,0.6-3.8,0.9-5.4,0.9c-1.2,0-2.4-0.2-3.4-0.6c-1-0.4-1.8-0.9-2.5-1.6
		c-0.7-0.7-1.2-1.5-1.6-2.5c-0.4-0.9-0.5-2-0.5-3.1c0-1.4,0.2-2.5,0.7-3.5c0.4-1,1-1.8,1.8-2.4c0.7-0.6,1.6-1.1,2.5-1.4
		c0.9-0.3,1.9-0.4,2.9-0.4c0.4,0,0.8,0,1.2,0.1c0.4,0.1,0.8,0.1,1.2,0.2V42.9z M129,56.6c0,1.5,0.4,2.7,1.2,3.6
		c0.8,0.9,2,1.4,3.5,1.4c0.4,0,0.8,0,1.2-0.1c0.4,0,0.8-0.1,1.2-0.2V52c-0.4-0.1-0.7-0.2-1.1-0.3c-0.4-0.1-0.8-0.1-1.1-0.1
		c-1.5,0-2.7,0.4-3.6,1.3C129.4,53.8,129,55,129,56.6z"/>
	<path class="st13" d="M143.6,49v9.6c0,0.5,0.1,1,0.3,1.3c0.2,0.4,0.4,0.7,0.7,0.9c0.3,0.3,0.7,0.4,1.1,0.6c0.4,0.1,0.8,0.2,1.3,0.2
		c1,0,1.7-0.2,2.4-0.5c0.6-0.4,1.1-0.8,1.4-1.3V49h3.1v15.3h-3v-0.9c-1.1,0.7-2.5,1-4.3,1c-0.8,0-1.6-0.1-2.3-0.4
		c-0.7-0.2-1.4-0.6-1.9-1c-0.5-0.5-1-1-1.3-1.7c-0.3-0.7-0.5-1.5-0.5-2.4V49H143.6z"/>
	<path class="st13" d="M168,61.9c-0.7,0.8-1.5,1.3-2.4,1.8c-0.9,0.4-2,0.7-3.3,0.7c-1.3,0-2.3-0.2-3.3-0.7c-0.9-0.4-1.6-1-2.2-1.7
		c-0.6-0.7-1-1.6-1.3-2.5c-0.3-0.9-0.4-1.9-0.4-2.9c0-1.1,0.2-2.1,0.5-3c0.3-0.9,0.8-1.8,1.4-2.5c0.6-0.7,1.3-1.3,2.2-1.6
		c0.9-0.4,1.9-0.6,3.1-0.6c1.2,0,2.4,0.3,3.3,0.8s1.9,1.2,2.7,2.1l-2.1,2.1c-0.6-0.6-1.2-1.1-1.8-1.5c-0.6-0.4-1.3-0.6-2-0.6
		c-0.7,0-1.4,0.1-1.9,0.4s-0.9,0.6-1.3,1.1c-0.3,0.4-0.6,1-0.7,1.5c-0.2,0.6-0.2,1.2-0.2,1.9c0,0.6,0.1,1.2,0.2,1.8
		c0.2,0.6,0.4,1.1,0.7,1.6c0.3,0.5,0.8,0.8,1.3,1.1c0.5,0.3,1.2,0.4,1.9,0.4c0.7,0,1.4-0.2,2.1-0.5c0.7-0.3,1.4-0.9,2-1.6l1.9,2
		L168,61.9z"/>
	<path class="st13" d="M182.7,62c-0.7,0.8-1.5,1.4-2.4,1.8c-0.9,0.4-2.1,0.6-3.4,0.6c-1.2,0-2.3-0.2-3.2-0.6c-0.9-0.4-1.7-1-2.3-1.7
		s-1.1-1.5-1.4-2.4c-0.3-0.9-0.5-1.9-0.5-2.9c0-1.3,0.2-2.5,0.5-3.5c0.4-1,0.9-1.8,1.5-2.5c0.6-0.7,1.4-1.1,2.2-1.5
		c0.8-0.3,1.7-0.5,2.7-0.5c2.3,0,4,0.7,5.1,2.2s1.7,3.6,1.7,6.4h-10.6c0.2,1.3,0.6,2.3,1.4,3c0.7,0.7,1.7,1.1,2.9,1.1
		c0.7,0,1.4-0.2,2.1-0.5c0.7-0.3,1.3-0.8,2-1.5l2,2.1L182.7,62z M176.5,51.5c-1.1,0-2,0.3-2.5,0.9c-0.6,0.6-0.9,1.3-1.1,2.2h7.3
		c-0.1-0.9-0.5-1.6-1.1-2.2C178.4,51.8,177.6,51.5,176.5,51.5z"/>
	<path class="st13" d="M193.5,52.1c-0.4-0.2-0.8-0.3-1.2-0.4c-0.4-0.1-0.7-0.1-1-0.1c-0.4,0-0.9,0.1-1.3,0.3
		c-0.4,0.2-0.8,0.4-1.2,0.7c-0.3,0.3-0.6,0.6-0.8,0.9c-0.2,0.3-0.3,0.6-0.3,0.9v9.8h-3.1V49h3.1V50c0.5-0.4,1.1-0.7,1.8-1
		s1.5-0.4,2.3-0.4c0.3,0,0.7,0,1.2,0.1c0.5,0.1,0.9,0.2,1.4,0.3L193.5,52.1z"/>
</g>
<text transform="matrix(1 0 0 1 229.7002 134.2484)" style="display:none;fill:#FFFFFF; font-family:'BerlinBold'; font-size:30.5034px;">producer</text>
</svg>
